<svg width="52" height="52" viewBox="0 0 52 52" fill="none" xmlns="http://www.w3.org/2000/svg">
<g clip-path="url(#clip0_0_228)" filter="url(#filter0_d_0_228)">
<path d="M35.158 14.6574L34.6872 13.1258C34.0892 11.3861 32.1775 10.455 30.4173 11.046C29.4271 11.3786 28.6495 12.1471 28.3131 13.1258L27.8423 14.6574C27.4461 15.949 27.3629 17.3147 27.5995 18.6439C27.8153 19.763 28.5342 20.7245 29.5531 21.2569L29.0259 32.907C28.9553 33.5572 29.1687 34.2064 29.6125 34.6915C30.5671 35.7235 32.1874 35.7952 33.2314 34.8518C33.2879 34.8008 33.342 34.7473 33.3936 34.6915C33.8275 34.2202 34.0406 33.59 33.9803 32.9555L33.4501 21.2555C34.4677 20.7228 35.1853 19.762 35.4007 18.6439C35.6373 17.3147 35.5542 15.949 35.158 14.6574ZM33.9561 18.3917C33.7973 19.1957 33.2176 19.8554 32.4344 20.1233C32.1371 20.2337 31.9456 20.5208 31.9599 20.8343L32.5173 33.0701C32.5429 33.3101 32.4628 33.5494 32.2973 33.7268C31.8557 34.1588 31.1446 34.1588 30.703 33.7268C30.5292 33.535 30.4503 33.277 30.4874 33.0222L31.0403 20.8343C31.0546 20.5208 30.8631 20.2337 30.5659 20.1233C29.7827 19.8554 29.203 19.1957 29.0442 18.3917C28.848 17.2881 28.9172 16.1544 29.2459 15.0821L29.7167 13.5499C30.081 12.5763 31.1747 12.079 32.1598 12.4391C32.6805 12.6294 33.091 13.0352 33.2836 13.5499L33.7544 15.0821C34.0827 16.1545 34.1519 17.2881 33.9561 18.3917Z" fill="#363853"/>
<path d="M23.8 10.8723C23.395 10.8723 23.0667 11.1969 23.0667 11.5971V17.8205L21.0815 19.7826C20.9347 19.9272 20.8566 20.1266 20.8667 20.3313L21.5083 33.0157C21.5236 33.2892 21.4232 33.5567 21.2311 33.7543C20.8297 34.1545 20.176 34.1574 19.7709 33.7606C19.7687 33.7585 19.7666 33.7563 19.7645 33.7543C19.5723 33.5567 19.472 33.2892 19.4873 33.0157L20.1333 20.3313C20.1436 20.1267 20.0658 19.9273 19.9192 19.7826L17.9333 17.8205V11.5971C17.9333 11.1969 17.605 10.8723 17.2 10.8723C16.795 10.8723 16.4667 11.1969 16.4667 11.5971V18.1205C16.4667 18.3128 16.544 18.4971 16.6815 18.633L18.6513 20.5806L18.0257 32.9454C17.9592 34.296 19.013 35.4443 20.3795 35.51C21.7459 35.5758 22.9077 34.5343 22.9743 33.1836C22.9782 33.1043 22.9782 33.0248 22.9743 32.9454L22.3487 20.5807L24.3185 18.6331C24.456 18.4972 24.5333 18.3129 24.5333 18.1206V11.5972C24.5333 11.1969 24.205 10.8723 23.8 10.8723Z" fill="#363853"/>
<path d="M19.4 10.8723C18.995 10.8723 18.6667 11.1969 18.6667 11.5971V17.3957C18.6667 17.796 18.995 18.1205 19.4 18.1205C19.805 18.1205 20.1334 17.796 20.1334 17.3957V11.5971C20.1334 11.1969 19.805 10.8723 19.4 10.8723Z" fill="#363853"/>
<path d="M21.6 10.8723C21.195 10.8723 20.8666 11.1969 20.8666 11.5971V17.3957C20.8666 17.796 21.195 18.1205 21.6 18.1205C22.005 18.1205 22.3333 17.796 22.3333 17.3957V11.5971C22.3333 11.1969 22.005 10.8723 21.6 10.8723Z" fill="#363853"/>
<path d="M26 0C13.8498 0 4 9.73546 4 21.7447C4 33.7539 13.8498 43.4894 26 43.4894C38.1502 43.4894 48 33.7539 48 21.7447C47.9863 9.74108 38.1446 0.0135904 26 0ZM26 42.0397C14.6597 42.0397 5.46667 32.9534 5.46667 21.7447C5.46667 10.536 14.6597 1.44965 26 1.44965C37.3403 1.44965 46.5333 10.536 46.5333 21.7447C46.5204 32.948 37.3349 42.027 26 42.0397Z" fill="#363853"/>
<path d="M28.3804 35.3511C28.3411 34.9525 27.9824 34.6609 27.5793 34.6998C27.5698 34.7007 27.5604 34.7018 27.551 34.703L27.5539 34.7023C26.5214 34.8209 25.4785 34.8209 24.446 34.7023C24.0436 34.6556 23.6792 34.9404 23.632 35.3383C23.5848 35.7363 23.8727 36.0966 24.2752 36.1433C25.4202 36.2755 26.5768 36.2755 27.7218 36.1433C28.1249 36.1045 28.4198 35.7498 28.3804 35.3511Z" fill="#363853"/>
<path d="M37.2202 12.4046C36.9599 12.0979 36.4974 12.0577 36.1871 12.315C36.1861 12.3159 36.1851 12.3168 36.184 12.3176C35.8744 12.5756 35.835 13.0328 36.096 13.3389C40.5175 18.5268 40.1793 26.198 35.3179 30.9861C35.031 31.2687 35.0302 31.7278 35.3161 32.0114C35.602 32.295 36.0665 32.2958 36.3534 32.0132C41.756 26.6936 42.1327 18.1695 37.2202 12.4046Z" fill="#363853"/>
<path d="M21.0859 9.58157C21.0854 9.58157 21.085 9.58057 21.0845 9.58057C21.0838 9.58057 21.083 9.58157 21.0822 9.58157H21.0859Z" fill="#363853"/>
<path d="M29.4592 7.65335C26.5932 6.97447 23.5874 7.15694 20.8271 8.1774C20.4479 8.31829 20.2563 8.73633 20.3988 9.11097C20.5062 9.39338 20.7794 9.5803 21.0846 9.58057C21.1723 9.58011 21.2592 9.56426 21.3411 9.53355C23.827 8.61474 26.5337 8.45066 29.1145 9.06241C29.5082 9.15646 29.9045 8.91736 29.9996 8.52822C30.0948 8.13908 29.8529 7.7474 29.4592 7.65335Z" fill="#363853"/>
<path d="M16.6492 30.9499C14.1771 28.5106 12.7915 25.1973 12.8 21.7446C12.7927 18.9861 13.6768 16.2974 15.3234 14.0702C15.5667 13.7502 15.5016 13.2958 15.1778 13.0553C14.854 12.8147 14.3943 12.8791 14.151 13.1992C14.1466 13.2049 14.1424 13.2106 14.1383 13.2164C9.89845 18.9776 10.5223 26.9299 15.6101 31.9762C15.8968 32.2598 16.362 32.26 16.6489 31.9766C16.9358 31.6932 16.936 31.2335 16.6492 30.9499Z" fill="#363853"/>
</g>
<defs>
<filter id="filter0_d_0_228" x="0" y="0" width="52" height="51.4894" filterUnits="userSpaceOnUse" color-interpolation-filters="sRGB">
<feFlood flood-opacity="0" result="BackgroundImageFix"/>
<feColorMatrix in="SourceAlpha" type="matrix" values="0 0 0 0 0 0 0 0 0 0 0 0 0 0 0 0 0 0 127 0" result="hardAlpha"/>
<feOffset dy="4"/>
<feGaussianBlur stdDeviation="2"/>
<feComposite in2="hardAlpha" operator="out"/>
<feColorMatrix type="matrix" values="0 0 0 0 0 0 0 0 0 0 0 0 0 0 0 0 0 0 0.25 0"/>
<feBlend mode="normal" in2="BackgroundImageFix" result="effect1_dropShadow_0_228"/>
<feBlend mode="normal" in="SourceGraphic" in2="effect1_dropShadow_0_228" result="shape"/>
</filter>
<clipPath id="clip0_0_228">
<rect width="44" height="43.4894" fill="white" transform="translate(4)"/>
</clipPath>
</defs>
</svg>
